<?xml version="1.0" standalone="no"?>
<!DOCTYPE svg PUBLIC "-//W3C//DTD SVG 20010904//EN"
 "http://www.w3.org/TR/2001/REC-SVG-20010904/DTD/svg10.dtd">
<svg version="1.0" xmlns="http://www.w3.org/2000/svg"
 width="657.000000pt" height="380.000000pt" viewBox="0 0 657.000000 380.000000"
 preserveAspectRatio="xMidYMid meet">

<g transform="translate(0.000000,380.000000) scale(0.100000,-0.100000)"
fill="#000000" stroke="none">
<path d="M3076 3624 c-38 -7 -107 -32 -155 -56 -187 -92 -311 -274 -337 -490
l-6 -58 701 0 701 0 0 46 c0 25 -7 74 -16 108 -58 228 -244 403 -476 450 -95
20 -315 20 -412 0z"/>
<path d="M2582 2778 l3 -113 665 -1 c366 -1 680 1 698 3 l32 5 0 109 0 109
-700 0 -701 0 3 -112z"/>
<path d="M2590 2435 l0 -115 695 0 695 0 0 115 0 115 -695 0 -695 0 0 -115z"/>
<path d="M2663 2182 l-83 -3 0 -109 0 -110 695 0 695 0 0 110 c0 98 -2 110
-17 110 -423 3 -1230 4 -1290 2z"/>
<path d="M2134 2091 c-49 -30 -58 -70 -44 -204 29 -282 146 -533 340 -727 177
-177 375 -283 618 -331 l112 -22 0 -199 0 -198 -330 0 c-358 0 -380 -3 -413
-53 -9 -15 -17 -45 -17 -68 0 -33 6 -47 34 -75 l34 -34 807 0 807 0 34 34 c39
39 45 86 18 137 -28 56 -50 59 -414 59 l-330 0 0 198 0 199 112 22 c239 47
441 154 613 326 204 203 315 443 345 742 10 100 9 116 -6 148 -51 107 -214 71
-214 -48 0 -68 -28 -230 -50 -298 -48 -142 -118 -257 -224 -368 -142 -147
-323 -246 -516 -281 -84 -15 -266 -15 -350 0 -193 35 -374 134 -516 281 -163
169 -253 375 -271 618 -5 82 -9 98 -32 124 -35 39 -102 47 -147 18z"/>
<path d="M2580 1798 c1 -63 30 -171 67 -247 54 -110 161 -215 274 -269 122
-58 169 -67 359 -67 188 0 238 9 355 65 187 89 323 282 342 485 l6 65 -702 0
-701 0 0 -32z"/>
</g>
</svg>
